<svg xmlns="http://www.w3.org/2000/svg" width="1280" height="760" viewBox="0 0 1280 760" fill="none">
  <rect width="1280" height="760" fill="#0f1318"/>
  <rect x="34" y="34" width="1212" height="692" rx="28" fill="#141b22" stroke="#c9a227" stroke-width="4"/>
  <rect x="88" y="138" width="290" height="470" rx="24" fill="#0e141a" stroke="#6ec1ff" stroke-width="4"/>
  <rect x="902" y="138" width="290" height="470" rx="24" fill="#0e141a" stroke="#7ce0a3" stroke-width="4"/>
  <rect x="458" y="96" width="364" height="548" rx="28" fill="#101820" stroke="#c9a227" stroke-width="4"/>
  <text x="120" y="212" fill="#f5f7fa" font-family="Segoe UI, Arial, sans-serif" font-size="50" font-weight="700">Client</text>
  <text x="956" y="212" fill="#f5f7fa" font-family="Segoe UI, Arial, sans-serif" font-size="50" font-weight="700">Server</text>
  <text x="548" y="162" fill="#f5f7fa" font-family="Segoe UI, Arial, sans-serif" font-size="44" font-weight="700">UDP Sync</text>
  <text x="515" y="216" fill="#cbd5df" font-family="Segoe UI, Arial, sans-serif" font-size="27">Sequence numbers</text>
  <text x="544" y="254" fill="#cbd5df" font-family="Segoe UI, Arial, sans-serif" font-size="27">ACK + resend</text>
  <text x="509" y="292" fill="#cbd5df" font-family="Segoe UI, Arial, sans-serif" font-size="27">Loss + latency sim</text>
  <text x="500" y="330" fill="#cbd5df" font-family="Segoe UI, Arial, sans-serif" font-size="27">Interpolation</text>
  <circle cx="276" cy="330" r="46" fill="#1d2d3b" stroke="#6ec1ff" stroke-width="4"/>
  <circle cx="1004" cy="330" r="46" fill="#173226" stroke="#7ce0a3" stroke-width="4"/>
  <circle cx="1092" cy="424" r="36" fill="#173226" stroke="#7ce0a3" stroke-width="4"/>
  <circle cx="1004" cy="520" r="36" fill="#173226" stroke="#7ce0a3" stroke-width="4"/>
  <path d="M318 330H455" stroke="#6ec1ff" stroke-width="8" stroke-linecap="round"/>
  <path d="M822 330H958" stroke="#7ce0a3" stroke-width="8" stroke-linecap="round"/>
  <path d="M1043 357L1080 392" stroke="#7ce0a3" stroke-width="6" stroke-linecap="round"/>
  <path d="M1036 488L1074 450" stroke="#7ce0a3" stroke-width="6" stroke-linecap="round"/>
  <path d="M392 288C462 238 530 232 640 232" stroke="#f4b860" stroke-width="7" stroke-linecap="round" stroke-dasharray="18 16"/>
  <path d="M888 288C818 238 750 232 640 232" stroke="#f4b860" stroke-width="7" stroke-linecap="round" stroke-dasharray="18 16"/>
  <path d="M392 372C462 422 530 428 640 428" stroke="#f4b860" stroke-width="7" stroke-linecap="round" stroke-dasharray="18 16"/>
  <path d="M888 372C818 422 750 428 640 428" stroke="#f4b860" stroke-width="7" stroke-linecap="round" stroke-dasharray="18 16"/>
  <text x="476" y="490" fill="#f5f7fa" font-family="Segoe UI, Arial, sans-serif" font-size="58" font-weight="700">UDP Gameplay</text>
  <text x="490" y="552" fill="#cbd5df" font-family="Segoe UI, Arial, sans-serif" font-size="34">Prototype for unreliable transport,</text>
  <text x="507" y="594" fill="#cbd5df" font-family="Segoe UI, Arial, sans-serif" font-size="34">recovery, smoothing, and update scope</text>
  <rect x="452" y="640" width="377" height="50" rx="25" fill="#1a242d" stroke="#c9a227"/>
  <text x="522" y="673" fill="#f5f7fa" font-family="Segoe UI, Arial, sans-serif" font-size="26" font-weight="600">student networking prototype</text>
</svg>
